<svg height="464.4791pt" viewBox="0 0 464.4791 464.4791" width="464.4791pt" xmlns="http://www.w3.org/2000/svg"><path d="m456.472656 400.449219c0 30.929687-25.070312 56-56 56-30.925781 0-56-25.070313-56-56 0-30.925781 25.074219-56 56-56 30.929688 0 56 25.074219 56 56zm0 0" fill="#985713"/><g fill="#834b10"><path d="m413.609375 346.050781c-18.738281-4.566406-38.507813.851563-52.304687 14.328125-13.792969 13.480469-19.664063 33.121094-15.535157 51.957032 27.222657-16.824219 50.386719-39.460938 67.839844-66.285157zm0 0"/><path d="m432.472656 384.449219c0 8.835937-7.164062 16-16 16-8.835937 0-16-7.164063-16-16 0-8.835938 7.164063-16 16-16 8.835938 0 16 7.164062 16 16zm0 0"/><path d="m368.472656 392.449219h16v16h-16zm0 0"/><path d="m392.472656 416.449219h16v16h-16zm0 0"/></g><path d="m440.472656 224.449219c0 119.292969-96.707031 216-216 216-119.292968 0-216-96.707031-216-216s96.707032-216 216-216c119.292969 0 216 96.707031 216 216zm0 0" fill="#dc4d41"/><path d="m416.472656 208.449219c.046875-67.164063-31.210937-130.515625-84.542968-171.34375-98.589844-56.257813-223.902344-26.609375-286.828126 67.863281-62.925781 94.472656-41.992187 221.53125 47.917969 290.824219 66.835938 38.359375 149.046875 38.195312 215.734375-.425781 66.683594-38.625 107.734375-109.855469 107.71875-186.917969zm0 0" fill="#f55648"/><path d="m435.058594 176.449219c-10.199219-44.695313-34.359375-84.984375-68.984375-115.03125l-23.328125-1.664063c-30.597656-2.183594-61.335938 1.214844-90.71875 10.023438-23.578125 7.078125-48.0625 10.675781-72.679688 10.671875h-115.824218c-20.714844 23.089843-36.199219 50.378906-45.402344 80h66.578125c12.894531 0 25.5-3.816407 36.230469-10.96875 19.503906-13.003907 44.480468-14.5625 65.449218-4.078125l48.304688 24.152344c9.070312 4.535156 19.074218 6.894531 29.214844 6.894531h171.199218zm0 0" fill="#c9463c"/><path d="m358.074219 60.851562-15.328125-1.097656c-30.597656-2.183594-61.335938 1.214844-90.71875 10.023438-23.578125 7.078125-48.0625 10.675781-72.679688 10.671875h-115.824218c-2.464844 2.746093-4.839844 5.601562-7.160157 8.425781-.320312.398438-.632812.800781-.953125 1.214844-1.96875 2.46875-3.886718 4.988281-5.753906 7.550781-.460938.640625-.917969 1.296875-1.382812 1.945313-1.664063 2.351562-3.285157 4.734374-4.863282 7.144531-.535156.800781-1.054687 1.597656-1.601562 2.464843-1.445313 2.292969-2.855469 4.628907-4.222656 6.984376-.542969.925781-1.089844 1.855468-1.601563 2.789062-1.292969 2.3125-2.542969 4.664062-3.75 7.023438-.511719.992187-1.03125 1.976562-1.527344 2.976562-1.191406 2.402344-2.328125 4.875-3.433593 7.34375-.421876.953125-.878907 1.898438-1.289063 2.855469-1.191406 2.769531-2.300781 5.601562-3.382813 8.402343-.253906.679688-.550781 1.351563-.800781 2.039063-1.320312 3.570313-2.558593 7.199219-3.6875 10.839844h66.578125c12.894532 0 25.5-3.816407 36.230469-10.96875 19.503906-13.003907 44.480469-14.5625 65.449219-4.078125l48.304687 24.152344c9.070313 4.535156 19.078125 6.898437 29.222657 6.894531h150.128906c-6.453125-43.328125-25.972656-83.660157-55.953125-115.597657zm0 0" fill="#dc4d41"/><path d="m320.472656 112.449219c0 13.253906-10.742187 24-24 24-13.253906 0-24-10.746094-24-24 0-13.253907 10.746094-24 24-24 13.257813 0 24 10.746093 24 24zm0 0" fill="#bb4137"/><path d="m385.425781 368.449219c15.589844-17.394531 28.257813-37.203125 37.503907-58.65625-4.296876-1.308594-8.375-3.242188-12.105469-5.742188l-44.902344-31.121093c-8.777344-5.707032-19.058594-8.660157-29.527344-8.480469h-49.234375c-14.246094-.710938-28.027344 5.195312-37.34375 16-9.316406 10.804687-23.09375 16.707031-37.34375 16h-26.152344c-10.464843-.179688-20.75 2.773437-29.527343 8.480469l-8.566407 5.9375c-9.890624 6.359374-21.59375 9.296874-33.3125 8.359374l-54.296874-3.425781c-10.757813-.679687-21.542969-.941406-32.335938-1 13.136719 28.433594 32.28125 53.679688 56.113281 74l70.398438-3.0625c19.75-.855469 39.367187-3.699219 58.542969-8.488281 23.339843-5.839844 47.304687-8.792969 71.363281-8.800781zm0 0" fill="#c9463c"/><path d="m365.921875 272.929688c-8.777344-5.707032-19.058594-8.660157-29.527344-8.480469h-49.234375c-14.246094-.710938-28.027344 5.195312-37.34375 16-9.316406 10.804687-23.09375 16.707031-37.34375 16h-26.152344c-10.464843-.179688-20.75 2.773437-29.527343 8.480469l-8.566407 5.9375c-9.890624 6.359374-21.59375 9.296874-33.3125 8.359374l-54.296874-3.425781c-10.742188-.679687-21.511719-.933593-32.28125-1 .296874.648438.601562 1.296875.90625 1.9375 1.191406 2.511719 2.398437 5.015625 3.703124 7.472657.578126 1.109374 1.175782 2.199218 1.777344 3.292968 1.289063 2.402344 2.589844 4.714844 4 7.019532.6875 1.160156 1.40625 2.292968 2.109375 3.429687 1.363281 2.199219 2.738281 4.394531 4.179688 6.535156.796875 1.210938 1.652343 2.402344 2.484375 3.578125 1.417968 2.03125 2.851562 4.054688 4.335937 6.03125.9375 1.25 1.921875 2.457032 2.882813 3.6875 1.472656 1.863282 2.925781 3.730469 4.453125 5.542969 1.074219 1.273437 2.195312 2.503906 3.289062 3.753906 1.503907 1.703125 3 3.421875 4.5625 5.085938 1.199219 1.273437 2.445313 2.507812 3.679688 3.753906 1.535156 1.601563 3.0625 3.144531 4.648437 4.65625 1.328125 1.273437 2.710938 2.480469 4.078125 3.71875 1.601563 1.417969 3.105469 2.863281 4.710938 4.242187l.320312.261719 70.328125-3.0625c19.753906-.851562 39.371094-3.695312 58.550782-8.488281 23.339843-5.839844 47.304687-8.792969 71.363281-8.800781h60.878906c22.488281-20.410157 40.429687-45.328125 52.65625-73.128907zm0 0" fill="#e24f43"/><path d="m184.472656 224.449219c0 22.09375-17.90625 40-40 40-22.089844 0-40-17.90625-40-40 0-22.089844 17.910156-40 40-40 22.09375 0 40 17.910156 40 40zm0 0" fill="#dc4d41"/><path d="m320.472656 320.449219c0 8.835937-7.164062 16-16 16-8.835937 0-16-7.164063-16-16 0-8.835938 7.164063-16 16-16 8.835938 0 16 7.164062 16 16zm0 0" fill="#c14339"/><path d="m296.472656 144.449219c17.675782 0 32-14.328125 32-32s-14.324218-32-32-32c-17.671875 0-32 14.328125-32 32s14.328125 32 32 32zm0-48c8.835938 0 16 7.164062 16 16 0 8.835937-7.164062 16-16 16-8.835937 0-16-7.164063-16-16 0-8.835938 7.164063-16 16-16zm0 0"/><path d="m144.472656 272.449219c26.511719 0 48-21.488281 48-48 0-26.507813-21.488281-48-48-48-26.507812 0-48 21.492187-48 48 .027344 26.5 21.503906 47.972656 48 48zm0-80c17.675782 0 32 14.328125 32 32s-14.324218 32-32 32c-17.671875 0-32-14.328125-32-32s14.328125-32 32-32zm0 0"/><path d="m304.472656 344.449219c13.257813 0 24-10.746094 24-24 0-13.253907-10.742187-24-24-24-13.253906 0-24 10.746093-24 24 0 13.253906 10.746094 24 24 24zm0-32c4.417969 0 8 3.582031 8 8s-3.582031 8-8 8c-4.417968 0-8-3.582031-8-8s3.582032-8 8-8zm0 0"/><path d="m416.472656 360.449219c-13.253906 0-24 10.746093-24 24 0 13.253906 10.746094 24 24 24 13.257813 0 24-10.746094 24-24 0-13.253907-10.742187-24-24-24zm0 32c-4.417968 0-8-3.582031-8-8s3.582032-8 8-8c4.417969 0 8 3.582031 8 8s-3.582031 8-8 8zm0 0"/><path d="m417.066406 338.664062c57.6875-97.207031 33.996094-222.15625-55.269531-291.507812-89.261719-69.347656-216.191406-61.410156-296.121094 18.519531-79.929687 79.929688-87.867187 206.859375-18.519531 296.121094 69.351562 89.265625 194.300781 112.957031 291.507812 55.269531 8.050782 29.992188 36.464844 49.878906 67.402344 47.167969 30.933594-2.710937 55.457032-27.234375 58.167969-58.167969 2.710937-30.9375-17.175781-59.351562-47.167969-67.402344zm-192.59375-322.214843c41.148438-.042969 81.371094 12.1875 115.527344 35.128906-5.324219-.304687-10.398438-.488281-15.199219-.488281-25.40625-.007813-50.679687 3.714844-75.007812 11.046875-22.855469 6.832031-46.582031 10.304687-70.4375 10.3125h-96.65625c38.425781-36.003907 89.117187-56.027344 141.773437-56zm-157.175781 72h112.058594c25.410156-.003907 50.683593-3.703125 75.03125-10.984375 22.832031-6.890625 46.550781-10.394532 70.398437-10.398438 5.457032 0 11.144532.199219 17.34375.625l20.5625 1.476563c29.75 26.484375 51.289063 60.9375 62.0625 99.28125h-160.839844c-8.882812-.023438-17.640624-2.085938-25.601562-6.03125l-48.320312-24.152344c-23.535157-11.757813-51.566407-10.015625-73.46875 4.558594-9.421876 6.28125-20.488282 9.628906-31.808594 9.625h-55.378906c8.703124-23.441407 21.5625-45.121094 37.960937-64zm-50.824219 136c.007813-18.929688 2.605469-37.773438 7.722656-56h60.519532c14.46875.007812 28.613281-4.269531 40.65625-12.296875 17.183594-11.214844 39-12.574219 57.445312-3.582032l48.34375 24.167969c10.183594 5.046875 21.390625 7.6875 32.753906 7.710938h164.664063c7.566406 38.460937 4.070313 78.28125-10.089844 114.832031-1.078125-.546875-2.125-1.152344-3.140625-1.808594l-44.875-31.109375c-10.101562-6.660156-21.980468-10.113281-34.078125-9.914062h-49.199219c-8.613281-.058594-17.152343 1.621093-25.097656 4.945312-7.464844 2.96875-13.957031 7.953125-18.75 14.398438-7.847656 8.671875-19.199218 13.324219-30.875 12.65625h-26.160156c-12.089844-.199219-23.960938 3.246093-34.0625 9.898437l-8.566406 5.917969c-8.398438 5.34375-18.304688 7.800781-28.226563 7l-54.351562-3.441406c-9.9375-.589844-18.925781-.871094-27.566407-.964844-11.28125-26.011719-17.089843-54.0625-17.066406-82.410156zm24.875 98.535156c5.972656.167969 12.148438.417969 18.773438.800781l54.402344 3.449219c1.34375.070313 2.671874.113281 4 .113281 12.160156.179688 24.101562-3.273437 34.285156-9.921875l8.578125-5.9375c7.433593-4.753906 16.105469-7.203125 24.925781-7.039062h26.160156c16.847656.738281 33.074219-6.421875 43.882813-19.367188 3.09375-4.039062 7.25-7.140625 12-8.96875 5.964843-2.480469 12.375-3.726562 18.839843-3.664062h49.199219c8.835938-.167969 17.519531 2.285156 24.960938 7.054687l44.941406 31.203125c1.882813 1.25 3.839844 2.378907 5.863281 3.382813-8.058594 16.742187-18.320312 32.332031-30.511718 46.359375h-96.933594c-24.710938-.003907-49.328125 3.03125-73.296875 9.039062-18.695313 4.644531-37.804688 7.410157-57.046875 8.25l-67.042969 2.902344c-18.617187-16.347656-34.183594-35.867187-45.980469-57.65625zm183.125 109.464844c-42.050781.042969-83.113281-12.738281-117.710937-36.640625l48.3125-2.085938c20.316406-.886718 40.496093-3.804687 60.230469-8.710937 22.699218-5.6875 46.007812-8.5625 69.410156-8.5625h81.535156c-38.425781 36.003906-89.117188 56.027343-141.777344 56zm176 16c-23.710937.015625-43.867187-17.3125-47.40625-40.757813 5.332032-3.734375 10.46875-7.679687 15.40625-11.839844v12.597657h16v-16h-12.070312c13.273437-11.703125 25.125-24.929688 35.3125-39.398438 24.664062 3.933594 42.191406 26.125 40.300781 51.03125-1.886719 24.90625-22.5625 44.203125-47.542969 44.367188zm0 0"/><path d="m392.472656 416.449219h16v16h-16zm0 0"/></svg>